<?xml version="1.0" encoding="UTF-8"?>
<svg version="1.1" xmlns="http://www.w3.org/2000/svg" width="512" height="512">
<path d="M0 0 C1.01790619 0.00215515 2.03581238 0.0043103 3.08456421 0.00653076 C17.69363523 0.05620146 32.02575853 0.30709809 46.375 3.3125 C47.34985352 3.51117676 48.32470703 3.70985352 49.32910156 3.91455078 C97.7109774 14.03517194 141.69928269 35.9516877 177.375 70.3125 C178.3640332 71.26068604 178.3640332 71.26068604 179.37304688 72.22802734 C188.86130305 81.37247479 197.6012044 90.66984009 205.375 101.3125 C206.23306152 102.46355017 207.09113451 103.61459177 207.94921875 104.765625 C213.98736829 112.95680614 219.34595521 121.47054105 224.375 130.3125 C224.73948242 130.94430176 225.10396484 131.57610352 225.47949219 132.22705078 C247.08534998 169.97532572 256.85198095 212.74189997 256.6875 255.9375 C256.68534485 256.95540619 256.6831897 257.97331238 256.68096924 259.02206421 C256.63129854 273.63113523 256.38040191 287.96325853 253.375 302.3125 C253.07698486 303.77478027 253.07698486 303.77478027 252.77294922 305.26660156 C242.65232806 353.6484774 220.7358123 397.63678269 186.375 433.3125 C185.74287598 433.97185547 185.11075195 434.63121094 184.45947266 435.31054688 C175.31502521 444.79880305 166.01765991 453.5387044 155.375 461.3125 C154.22394983 462.17056152 153.07290823 463.02863451 151.921875 463.88671875 C143.73224019 469.92427396 135.22961724 475.30707302 126.375 480.3125 C125.66778809 480.7146875 124.96057617 481.116875 124.23193359 481.53125 C101.09654164 494.5566741 75.92537591 503.30551461 49.9375 508.625 C49.21860596 508.77235596 48.49971191 508.91971191 47.7590332 509.0715332 C33.08339502 511.86090125 18.55831162 512.66142619 3.64770508 512.62817383 C0.70811513 512.6250221 -2.2304558 512.64854926 -5.16992188 512.67382812 C-18.54306192 512.71848737 -31.43916711 511.51301542 -44.625 509.3125 C-46.33055054 509.03031616 -46.33055054 509.03031616 -48.07055664 508.74243164 C-91.33802759 500.97044532 -132.38793216 480.98345309 -165.625 452.3125 C-166.37007813 451.67828125 -167.11515625 451.0440625 -167.8828125 450.390625 C-181.38779833 438.57948485 -194.05918743 425.82889772 -204.625 411.3125 C-205.48149066 410.16255169 -206.33826433 409.01281411 -207.1953125 407.86328125 C-213.23534209 399.67315742 -218.61867614 391.16870382 -223.625 382.3125 C-224.0271875 381.60528809 -224.429375 380.89807617 -224.84375 380.16943359 C-237.8691741 357.03404164 -246.61801461 331.86287591 -251.9375 305.875 C-252.08485596 305.15610596 -252.23221191 304.43721191 -252.3840332 303.6965332 C-255.35789088 288.05024391 -255.99800362 272.57681954 -255.9375 256.6875 C-255.93534485 255.66959381 -255.9331897 254.65168762 -255.93096924 253.60293579 C-255.88129854 238.99386477 -255.63040191 224.66174147 -252.625 210.3125 C-252.42632324 209.33764648 -252.22764648 208.36279297 -252.02294922 207.35839844 C-241.90232806 158.9765226 -219.9858123 114.98821731 -185.625 79.3125 C-184.99287598 78.65314453 -184.36075195 77.99378906 -183.70947266 77.31445312 C-174.56502521 67.82619695 -165.26765991 59.0862956 -154.625 51.3125 C-153.47394983 50.45443848 -152.32290823 49.59636549 -151.171875 48.73828125 C-142.98224019 42.70072604 -134.47961724 37.31792698 -125.625 32.3125 C-124.91778809 31.9103125 -124.21057617 31.508125 -123.48193359 31.09375 C-100.34654164 18.0683259 -75.17537591 9.31948539 -49.1875 4 C-48.46860596 3.85264404 -47.74971191 3.70528809 -47.0090332 3.5534668 C-31.36274391 0.57960912 -15.88931954 -0.06050362 0 0 Z " fill="#FF2147" transform="translate(255.625,-0.3125)"/>
<path d="M0 0 C0.82177734 -0.00515625 1.64355469 -0.0103125 2.49023438 -0.015625 C3.34037109 -0.00015625 4.19050781 0.0153125 5.06640625 0.03125 C5.91267578 0.01578125 6.75894531 0.0003125 7.63085938 -0.015625 C8.45392578 -0.01046875 9.27699219 -0.0053125 10.125 0 C10.86935303 0.00451172 11.61370605 0.00902344 12.38061523 0.01367188 C15.75539511 0.79057852 17.24233123 2.00478552 19.62890625 4.53125 C20.36101925 7.55515427 20.26086733 10.51660887 20.1965332 13.61425781 C20.19743721 15.0125992 20.19743721 15.0125992 20.19835949 16.43918991 C20.19462934 19.4548599 20.15656662 22.46898175 20.1171875 25.484375 C20.10983542 27.34683488 20.10473493 29.20930506 20.10192871 31.07177734 C20.07572184 37.97509252 20.00591553 44.87818649 19.94140625 51.78125 C19.83828125 67.20875 19.73515625 82.63625 19.62890625 98.53125 C51.96890625 98.53125 84.30890625 98.53125 117.62890625 98.53125 C117.47061328 76.99052226 117.47061328 76.99052226 117.26855469 55.45019531 C117.25687418 52.75326162 117.24668086 50.0563209 117.23828125 47.359375 C117.22782776 46.65995789 117.21737427 45.96054077 117.206604 45.2399292 C117.17728014 43.17421899 117.17328328 41.10983277 117.17480469 39.04394531 C117.16592224 37.88034485 117.15703979 36.71674438 117.14788818 35.5178833 C117.62890625 32.53125 117.62890625 32.53125 119.03364563 30.15556335 C123.07655099 27.62520278 126.92922273 27.98225163 131.60717773 28.02954102 C132.62075851 28.02413803 133.63433929 28.01873505 134.67863464 28.01316833 C138.03605199 28.00064373 141.3926174 28.01720799 144.75 28.03515625 C147.08968653 28.03500124 149.42937332 28.03351195 151.76905823 28.03074646 C156.68103342 28.02936042 161.59271739 28.0419466 166.50463867 28.06469727 C172.77204221 28.09294113 179.03895663 28.09038556 185.30639553 28.07760715 C190.14429321 28.0706145 194.98207995 28.07848242 199.81996346 28.09086418 C202.12860754 28.09535389 204.43726365 28.09573738 206.74590874 28.09179878 C226.214425 28.07414829 243.33823871 28.78035836 258.234375 42.87890625 C267.54797747 53.19527832 272.10543401 64.64332768 272.03295898 78.41552734 C272.04325386 79.81259415 272.04325386 79.81259415 272.05375671 81.23788452 C272.07188929 84.28114548 272.06820965 87.32388476 272.0625 90.3671875 C272.06706544 92.49565802 272.07237209 94.62412707 272.0783844 96.75259399 C272.08728664 101.19563827 272.08492192 105.63850246 272.07495117 110.08154297 C272.06341321 115.77803042 272.08376149 121.47390242 272.11286831 127.17030907 C272.13118983 131.55746403 272.13094682 135.94446999 272.12523079 140.33165359 C272.12507736 142.43283584 272.13113978 144.53402804 272.14352226 146.6351738 C272.15836896 149.56496071 272.14780496 152.49358968 272.13061523 155.42333984 C272.1402832 156.29091919 272.14995117 157.15849854 272.15991211 158.05236816 C272.08772334 163.91610721 272.08772334 163.91610721 269.73670959 167.06814575 C267.28094651 168.77278172 265.97222254 169.04557963 263.00390625 169.0625 C262.1325 169.06765625 261.26109375 169.0728125 260.36328125 169.078125 C259.4609375 169.06265625 258.55859375 169.0471875 257.62890625 169.03125 C256.27539062 169.05445313 256.27539062 169.05445313 254.89453125 169.078125 C254.023125 169.07296875 253.15171875 169.0678125 252.25390625 169.0625 C251.46242188 169.05798828 250.6709375 169.05347656 249.85546875 169.04882812 C247.62890625 168.53125 247.62890625 168.53125 243.62890625 164.53125 C243.62890625 156.61125 243.62890625 148.69125 243.62890625 140.53125 C169.70890625 140.53125 95.78890625 140.53125 19.62890625 140.53125 C19.62890625 148.12125 19.62890625 155.71125 19.62890625 163.53125 C13.99415873 169.16599752 13.99415873 169.16599752 10.125 169.1953125 C9.30193359 169.20175781 8.47886719 169.20820313 7.63085938 169.21484375 C6.78458984 169.19550781 5.93832031 169.17617188 5.06640625 169.15625 C4.21626953 169.17558594 3.36613281 169.19492187 2.49023438 169.21484375 C1.25756836 169.20517578 1.25756836 169.20517578 0 169.1953125 C-0.7432251 169.18967285 -1.4864502 169.1840332 -2.25219727 169.17822266 C-5.49738184 168.18735515 -6.52629575 166.32152022 -8.37109375 163.53125 C-8.87445831 160.44402218 -8.87445831 160.44402218 -8.87902832 156.92063904 C-8.88526828 156.26990435 -8.89150825 155.61916967 -8.8979373 154.94871575 C-8.91384749 152.77590354 -8.90127227 150.6042163 -8.88867188 148.43139648 C-8.89409387 146.87065986 -8.90121697 145.30992836 -8.90991211 143.74920654 C-8.92813784 139.51577018 -8.92108156 135.28272401 -8.90839577 131.04928088 C-8.89826597 126.61886722 -8.90766122 122.18848688 -8.91394043 117.7580719 C-8.92121614 110.31920372 -8.91163037 102.88049444 -8.89257812 95.44165039 C-8.87080148 86.83970842 -8.87786671 78.23814557 -8.89988375 69.63621277 C-8.91803042 62.25093954 -8.92059992 54.86578049 -8.91012907 47.48049217 C-8.90389111 43.0694301 -8.90306691 38.65854629 -8.91627502 34.24749565 C-8.92782259 30.10149745 -8.91982822 25.95598862 -8.896698 21.81004333 C-8.89140534 20.28786088 -8.89293425 18.76563729 -8.90174866 17.24347115 C-8.91266662 15.16671576 -8.89898943 13.09153228 -8.87902832 11.01487732 C-8.87752022 9.85253791 -8.87601212 8.6901985 -8.87445831 7.49263668 C-8.00509228 2.37799578 -5.10060986 0.03096305 0 0 Z " fill="#FFFEFE" transform="translate(124.37109375,171.46875)"/>
<path d="M0 0 C8.01183122 5.07046769 13.62321342 12.1370299 16.51953125 21.1953125 C18.50159274 31.53167058 17.01054574 40.65085939 11.6171875 49.5546875 C6.54455688 56.90030014 -0.97399689 62.78039204 -9.6875 65.0625 C-22.01150721 66.20361178 -31.36630892 64.98195287 -41.24609375 57.078125 C-49.49400003 49.34460427 -52.9471324 40.77808216 -53.375 29.625 C-53.26903206 20.11143413 -49.50592795 12.29571891 -43.0625 5.375 C-30.8319995 -6.01201771 -14.58278795 -8.06987363 0 0 Z " fill="#FFFCFD" transform="translate(211.0625,190.625)"/>
</svg>
