<?xml version="1.0" encoding="UTF-8"?>
<svg version="1.1" xmlns="http://www.w3.org/2000/svg" width="512" height="512">
<path d="M0 0 C5.00515465 3.01048047 8.70880882 6.55257867 12.1171875 11.2734375 C12.90222656 11.14066406 13.68726563 11.00789063 14.49609375 10.87109375 C20.02906737 9.94101107 25.55792591 9.03151863 31.1171875 8.2734375 C30.7871875 5.6334375 30.4571875 2.9934375 30.1171875 0.2734375 C43.58097132 -2.17234335 56.5813812 -3.15567708 70.26000977 -3.0078125 C73.23661532 -2.97595319 76.21269197 -2.96675385 79.18945312 -2.9609375 C81.09375652 -2.95179098 82.99805454 -2.94142285 84.90234375 -2.9296875 C85.78656509 -2.92543762 86.67078644 -2.92118774 87.58180237 -2.91680908 C88.80600136 -2.90239777 88.80600136 -2.90239777 90.05493164 -2.88769531 C90.76960098 -2.88086731 91.48427032 -2.87403931 92.22059631 -2.86700439 C94.1171875 -2.7265625 94.1171875 -2.7265625 97.1171875 -1.7265625 C97.1171875 0.9134375 97.1171875 3.5534375 97.1171875 6.2734375 C97.91640625 6.32242187 98.715625 6.37140625 99.5390625 6.421875 C105.2365152 6.80972976 110.6631725 7.3485969 116.2421875 8.5859375 C120.67186555 9.38975636 123.23184947 9.1574992 127.3671875 7.3984375 C135.81739166 3.80832186 145.96159466 3.89152447 154.6796875 6.7109375 C160.08477691 8.95827361 165.04545307 12.11806213 169.90454102 15.36303711 C173.31633006 17.63827556 173.31633006 17.63827556 177.26879883 18.16113281 C181.45853072 16.85541025 185.19588789 14.83544096 189.07421875 12.80078125 C190.84410291 11.89199728 192.61429496 10.98381272 194.38476562 10.07617188 C197.15965044 8.64540641 199.93173614 7.20986648 202.69848633 5.76342773 C205.37900742 4.36550745 208.06933127 2.98817579 210.76171875 1.61328125 C211.57969437 1.17894272 212.39766998 0.74460419 213.24043274 0.29710388 C218.50182621 -2.36810792 222.2125016 -3.31618184 228.1171875 -2.7265625 C230.5078125 -1.37109375 230.5078125 -1.37109375 232.3671875 0.4609375 C233.34945312 1.42773438 233.34945312 1.42773438 234.3515625 2.4140625 C234.93421875 3.02765625 235.516875 3.64125 236.1171875 4.2734375 C237.3546875 5.48 237.3546875 5.48 238.6171875 6.7109375 C240.70179875 10.27214838 240.93341301 13.30487823 240.1171875 17.2734375 C238.23682344 20.79875399 235.84990055 23.84030512 233.3671875 26.9609375 C232.73296875 27.78916016 232.09875 28.61738281 231.4453125 29.47070312 C228.92525262 32.74940604 226.35995458 35.97949893 223.7265625 39.16796875 C221.93679279 41.27314769 221.93679279 41.27314769 221.1171875 44.2734375 C221.80941406 44.51296143 222.50164062 44.75248535 223.21484375 44.99926758 C226.63506754 46.50079416 229.53288347 48.49866776 232.5546875 50.66015625 C233.7912535 51.52467982 235.02824562 52.38859414 236.265625 53.25195312 C238.19910433 54.60849129 240.12899995 55.96936453 242.05175781 57.34106445 C243.91857877 58.66937936 245.79774315 59.978392 247.6796875 61.28515625 C248.53614868 61.90688972 248.53614868 61.90688972 249.40991211 62.54118347 C251.98690466 64.31272275 253.60361813 65.29165286 256.77416992 65.17919922 C259.14657474 64.26207701 260.9787756 63.25031423 263.04296875 61.76953125 C263.75775391 61.27646484 264.47253906 60.78339844 265.20898438 60.27539062 C266.68348284 59.23662785 268.15232458 58.18978636 269.61523438 57.13476562 C274.72322585 53.63934186 277.90985768 52.40729846 284.1171875 53.2734375 C286.26171875 54.41796875 286.26171875 54.41796875 287.9296875 56.0859375 C288.90035156 57.02953125 288.90035156 57.02953125 289.890625 57.9921875 C290.62539063 58.745 291.36015625 59.4978125 292.1171875 60.2734375 C293.08659956 61.22334022 294.05807877 62.1711364 295.03125 63.1171875 C303.91663903 71.81946113 303.91663903 71.81946113 304.6171875 76.8984375 C304.3942891 86.60044037 290.24286734 96.25741077 283.6796875 102.7734375 C282.4587506 103.98934864 281.23804558 105.20549266 280.01757812 106.421875 C277.05344737 109.37508716 274.08619792 112.32513148 271.1171875 115.2734375 C271.9834375 116.86285156 271.9834375 116.86285156 272.8671875 118.484375 C273.61740538 119.87227808 274.36739351 121.26030537 275.1171875 122.6484375 C275.49875 123.34710938 275.8803125 124.04578125 276.2734375 124.765625 C279.1171875 130.046875 279.1171875 130.046875 279.1171875 132.2734375 C280.0453125 131.7578125 280.9734375 131.2421875 281.9296875 130.7109375 C285.1171875 129.2734375 285.1171875 129.2734375 288.1171875 130.2734375 C289.17285156 131.88964844 289.17285156 131.88964844 290.1328125 134.0078125 C290.49342773 134.79849121 290.85404297 135.58916992 291.22558594 136.40380859 C291.60231445 137.26828613 291.97904297 138.13276367 292.3671875 139.0234375 C292.95935059 140.36849365 292.95935059 140.36849365 293.56347656 141.74072266 C303.97740494 165.89279949 312.94801658 194.68690692 312.1171875 221.2734375 C309.4771875 221.2734375 306.8371875 221.2734375 304.1171875 221.2734375 C304.1171875 228.5334375 304.1171875 235.7934375 304.1171875 243.2734375 C306.0971875 243.9334375 308.0771875 244.5934375 310.1171875 245.2734375 C312.63928668 249.05658627 312.83835209 251.90012828 312.1171875 256.2734375 C310.68711978 260.06052356 308.83270842 263.60919785 306.9921875 267.2109375 C302.87364674 275.68134182 299.87330554 283.81994353 297.8671875 293.0234375 C290.62914322 326.03939019 275.28177717 357.64680685 253.27001953 383.43774414 C248.23040936 389.45658402 244.7218934 395.45266067 241.4921875 402.5859375 C240.46175612 404.79595479 239.43047033 407.00557385 238.3984375 409.21484375 C237.86605469 410.36484863 237.33367187 411.51485352 236.78515625 412.69970703 C234.20932634 418.2185885 231.54863476 423.6956773 228.88937378 429.17471313 C225.25887816 436.65564086 221.63668494 444.13973084 218.11328125 451.671875 C217.65646973 452.64543945 217.1996582 453.61900391 216.72900391 454.62207031 C215.88839867 456.41826775 215.05307411 458.21695004 214.22412109 460.01855469 C213.85496582 460.80649414 213.48581055 461.59443359 213.10546875 462.40625 C212.79134033 463.08574707 212.47721191 463.76524414 212.15356445 464.46533203 C210.99082313 466.49389794 209.9159564 467.77432857 208.1171875 469.2734375 C201.65957823 470.67164026 196.48544555 468.52693272 190.93359375 465.44921875 C189.41378841 464.6600809 187.89359405 463.87169188 186.37304688 463.08398438 C184.01913649 461.8376231 181.67143166 460.58145389 179.33081055 459.31030273 C169.36353179 453.30527835 169.36353179 453.30527835 158.30859375 453.1484375 C156.88891544 453.8104322 155.48934262 454.51784912 154.1171875 455.2734375 C152.5823565 455.85433005 151.0408238 456.41792004 149.4921875 456.9609375 C148.3784375 457.3940625 147.2646875 457.8271875 146.1171875 458.2734375 C146.4471875 460.9134375 146.7771875 463.5534375 147.1171875 466.2734375 C127.60181225 472.31534934 107.12785239 477.53567696 86.5546875 477.3359375 C85.33652344 477.32691406 84.11835938 477.31789063 82.86328125 477.30859375 C81.95707031 477.29699219 81.05085937 477.28539062 80.1171875 477.2734375 C80.1171875 474.6334375 80.1171875 471.9934375 80.1171875 469.2734375 C76.57411411 469.29636274 73.03421859 469.37383837 69.4921875 469.4609375 C68.49316406 469.46673828 67.49414062 469.47253906 66.46484375 469.47851562 C59.74829011 469.67867782 56.8791887 470.56148737 52.1171875 475.2734375 C45.79281182 478.60205628 37.49312081 478.37790629 30.671875 476.65625 C25.33244966 474.29015171 21.40988915 470.02727551 18.1171875 465.2734375 C18.1171875 464.6134375 18.1171875 463.9534375 18.1171875 463.2734375 C17.53090576 463.17184326 16.94462402 463.07024902 16.34057617 462.96557617 C9.50270478 461.69925409 3.01588588 459.80092456 -3.5703125 457.5859375 C-4.62613525 457.23724609 -5.68195801 456.88855469 -6.76977539 456.52929688 C-12.729992 454.51200682 -18.26851416 452.21659649 -23.8203125 449.2734375 C-31.79345382 445.27780645 -39.20160042 445.60401723 -47.8828125 446.2734375 C-47.83640625 447.19125 -47.79 448.1090625 -47.7421875 449.0546875 C-47.34317763 462.62102305 -47.34317763 462.62102305 -51.8828125 468.2734375 C-56.68729889 473.31864972 -61.04458305 476.87906745 -68.15234375 477.609375 C-76.66857823 477.70326954 -82.55876744 477.3911663 -88.84765625 471.40234375 C-94.22981646 465.57992503 -96.16490189 461.25103558 -96.0703125 453.2109375 C-96.06386719 452.00308594 -96.05742188 450.79523438 -96.05078125 449.55078125 C-95.91609621 446.92285689 -95.6600928 444.76695271 -94.8828125 442.2734375 C-95.61757812 442.1703125 -96.35234375 442.0671875 -97.109375 441.9609375 C-105.29665336 439.93141498 -111.50277759 432.07991784 -115.8828125 425.2734375 C-122.13651128 414.29840322 -120.28972871 400.62739999 -119.99633789 388.45410156 C-119.68789749 373.92364909 -121.21733017 364.98552293 -129.8828125 353.2734375 C-131.10394573 351.14656407 -132.29787485 349.00345769 -133.4453125 346.8359375 C-133.92097656 345.95035156 -134.39664063 345.06476563 -134.88671875 344.15234375 C-135.21542969 343.53230469 -135.54414063 342.91226562 -135.8828125 342.2734375 C-138.5228125 342.9334375 -141.1628125 343.5934375 -143.8828125 344.2734375 C-152.33670245 326.42633649 -158.83792546 308.74603654 -163.1953125 289.4609375 C-163.43789795 288.38900146 -163.6804834 287.31706543 -163.93041992 286.21264648 C-167.36691982 270.24731661 -168.29001866 254.73765977 -168.2578125 238.4609375 C-168.25760101 237.4723172 -168.25738953 236.4836969 -168.25717163 235.46511841 C-168.22298372 219.41251687 -167.25869477 204.01553436 -163.8828125 188.2734375 C-163.70089355 187.39123535 -163.51897461 186.5090332 -163.33154297 185.60009766 C-156.05851741 151.1458452 -140.86086633 117.82506254 -118.8828125 90.2734375 C-118.16609375 89.36464844 -117.449375 88.45585938 -116.7109375 87.51953125 C-111.06835947 80.48631785 -105.06362053 73.8319104 -98.8828125 67.2734375 C-98.19316406 66.54125 -97.50351563 65.8090625 -96.79296875 65.0546875 C-91.5445728 59.64529781 -85.77408435 54.9620773 -79.8828125 50.2734375 C-78.91730469 49.49871094 -77.95179687 48.72398438 -76.95703125 47.92578125 C-74.60234324 46.03736809 -72.24426519 44.15337923 -69.8828125 42.2734375 C-66.99843471 43.56643444 -65.01061829 44.93285113 -62.8828125 47.2734375 C-57.80159092 44.97213586 -52.56527745 42.58736513 -48.8828125 38.2734375 C-47.15550314 33.48006325 -47.7708234 28.25356718 -47.91845703 23.23974609 C-47.79754581 16.56975286 -44.0208713 10.55320247 -39.5859375 5.8046875 C-28.96989253 -3.74001348 -12.98250985 -6.16341377 0 0 Z M-26.8828125 18.2734375 C-29.85069623 22.02234327 -30.8828125 23.43113367 -30.8828125 28.2734375 C-25.43735634 26.57731181 -20.24807043 24.38186068 -15.0078125 22.1484375 C-14.12867188 21.77589844 -13.24953125 21.40335938 -12.34375 21.01953125 C-10.18923023 20.10620222 -8.03562226 19.19078818 -5.8828125 18.2734375 C-9.08080872 14.93007782 -10.99808284 14.09436154 -15.6328125 13.9609375 C-20.51911597 14.02430455 -23.17319255 14.91711469 -26.8828125 18.2734375 Z " fill="#3B322C" transform="translate(183.8828125,18.7265625)"/>
<path d="M0 0 C2.97660555 0.03185931 5.9526822 0.04105865 8.92944336 0.046875 C10.83374676 0.05602152 12.73804478 0.06638965 14.64233398 0.078125 C15.52655533 0.08237488 16.41077667 0.08662476 17.3217926 0.09100342 C18.54599159 0.10541473 18.54599159 0.10541473 19.79492188 0.12011719 C20.50959122 0.12694519 21.22426056 0.13377319 21.96058655 0.14080811 C23.85717773 0.28125 23.85717773 0.28125 26.85717773 1.28125 C26.85717773 3.92125 26.85717773 6.56125 26.85717773 9.28125 C27.65639648 9.33023437 28.45561523 9.37921875 29.27905273 9.4296875 C34.97650544 9.81754226 40.40316273 10.3564094 45.98217773 11.59375 C50.41185578 12.39756886 52.9718397 12.1653117 57.10717773 10.40625 C65.5573819 6.81613436 75.7015849 6.89933697 84.41967773 9.71875 C89.82476715 11.96608611 94.7854433 15.12587463 99.64453125 18.37084961 C103.0563203 20.64608806 103.0563203 20.64608806 107.00878906 21.16894531 C111.19852096 19.86322275 114.93587813 17.84325346 118.81420898 15.80859375 C120.58409315 14.89980978 122.3542852 13.99162522 124.12475586 13.08398438 C126.89964067 11.65321891 129.67172638 10.21767898 132.43847656 8.77124023 C135.11899765 7.37331995 137.8093215 5.99598829 140.50170898 4.62109375 C141.3196846 4.18675522 142.13766022 3.75241669 142.98042297 3.30491638 C148.24181645 0.63970458 151.95249183 -0.30836934 157.85717773 0.28125 C160.24780273 1.63671875 160.24780273 1.63671875 162.10717773 3.46875 C163.08944336 4.43554688 163.08944336 4.43554688 164.09155273 5.421875 C164.67420898 6.03546875 165.25686523 6.6490625 165.85717773 7.28125 C166.68217773 8.085625 167.50717773 8.89 168.35717773 9.71875 C170.44178898 13.27996088 170.67340325 16.31269073 169.85717773 20.28125 C167.97681368 23.80656649 165.58989079 26.84811762 163.10717773 29.96875 C162.47295898 30.79697266 161.83874023 31.62519531 161.18530273 32.47851562 C158.66524285 35.75721854 156.09994481 38.98731143 153.46655273 42.17578125 C151.67678303 44.28096019 151.67678303 44.28096019 150.85717773 47.28125 C151.89551758 47.64053589 151.89551758 47.64053589 152.95483398 48.00708008 C156.37505777 49.50860666 159.2728737 51.50648026 162.29467773 53.66796875 C163.53124373 54.53249232 164.76823586 55.39640664 166.00561523 56.25976562 C167.93909457 57.61630379 169.86899018 58.97717703 171.79174805 60.34887695 C173.658569 61.67719186 175.53773339 62.9862045 177.41967773 64.29296875 C177.99065186 64.70745773 178.56162598 65.12194672 179.14990234 65.54899597 C181.72689489 67.32053525 183.34360836 68.29946536 186.51416016 68.18701172 C188.88656497 67.26988951 190.71876584 66.25812673 192.78295898 64.77734375 C193.49774414 64.28427734 194.2125293 63.79121094 194.94897461 63.28320312 C196.42347308 62.24444035 197.89231481 61.19759886 199.35522461 60.14257812 C204.46321608 56.64715436 207.64984792 55.41511096 213.85717773 56.28125 C216.00170898 57.42578125 216.00170898 57.42578125 217.66967773 59.09375 C218.6403418 60.03734375 218.6403418 60.03734375 219.63061523 61 C220.36538086 61.7528125 221.10014648 62.505625 221.85717773 63.28125 C222.82658979 64.23115272 223.798069 65.1789489 224.77124023 66.125 C233.65662927 74.82727363 233.65662927 74.82727363 234.35717773 79.90625 C234.13427933 89.60825287 219.98285758 99.26522327 213.41967773 105.78125 C212.19874083 106.99716114 210.97803581 108.21330516 209.75756836 109.4296875 C206.7934376 112.38289966 203.82618815 115.33294398 200.85717773 118.28125 C201.72342773 119.87066406 201.72342773 119.87066406 202.60717773 121.4921875 C203.35739562 122.88009058 204.10738374 124.26811787 204.85717773 125.65625 C205.23874023 126.35492188 205.62030273 127.05359375 206.01342773 127.7734375 C208.85717773 133.0546875 208.85717773 133.0546875 208.85717773 135.28125 C209.78530273 134.765625 210.71342773 134.25 211.66967773 133.71875 C214.85717773 132.28125 214.85717773 132.28125 217.85717773 133.28125 C218.9128418 134.89746094 218.9128418 134.89746094 219.87280273 137.015625 C220.23341797 137.80630371 220.5940332 138.59698242 220.96557617 139.41162109 C221.34230469 140.27609863 221.7190332 141.14057617 222.10717773 142.03125 C222.69934082 143.37630615 222.69934082 143.37630615 223.3034668 144.74853516 C233.71739518 168.90061199 242.68800681 197.69471942 241.85717773 224.28125 C239.21717773 224.28125 236.57717773 224.28125 233.85717773 224.28125 C233.85717773 231.54125 233.85717773 238.80125 233.85717773 246.28125 C216.24189369 238.56546442 199.0184355 230.09806319 181.74842834 221.64596558 C175.4254917 218.55353503 169.08708029 215.49500463 162.73217773 212.46875 C154.88869227 208.73306609 147.05859054 204.97058181 139.23687744 201.1895752 C137.37414357 200.28944838 135.51100452 199.39016634 133.64770508 198.49121094 C132.42586113 197.90169582 131.20401867 197.31217761 129.98217773 196.72265625 C129.38208893 196.4331308 128.78200012 196.14360535 128.16372681 195.8453064 C124.22489313 193.9440194 120.29040271 192.03395055 116.35717773 190.12109375 C96.39906493 178.81059853 96.39906493 178.81059853 74.63842773 178.015625 C67.75368053 181.14972634 63.69471724 185.99048011 60.23217773 192.65625 C59.89718262 193.29997559 59.5621875 193.94370117 59.21704102 194.60693359 C55.27316723 202.2715104 51.59944457 210.07118723 47.90795898 217.859375 C44.90567322 224.19261366 41.86181287 230.50547251 38.81018066 236.81503296 C37.33403768 239.86712804 35.85913919 242.91982399 34.38452148 245.97265625 C34.09372711 246.57467361 33.80293274 247.17669098 33.50332642 247.79695129 C28.6015285 257.94888057 23.72980189 268.11529482 18.85717773 278.28125 C18.52717773 278.28125 18.19717773 278.28125 17.85717773 278.28125 C17.85131149 277.28059509 17.84544525 276.27994019 17.83940125 275.2489624 C17.78195446 265.77534979 17.70908 256.30196191 17.62146282 246.82857895 C17.57691404 241.95930415 17.53762458 237.09011004 17.51074219 232.22070312 C17.48455363 227.51319973 17.44404364 222.80600947 17.39399147 218.09870148 C17.37742719 216.31119968 17.36584842 214.52364385 17.35956383 212.73607635 C17.30213568 197.89019497 16.62284714 183.73655799 5.97045898 172.24609375 C-3.33243368 163.63771959 -13.69448195 161.05526144 -26.11547852 160.8671875 C-27.32825722 160.83813828 -27.32825722 160.83813828 -28.5655365 160.8085022 C-31.11202923 160.7494001 -33.65856891 160.70260289 -36.20532227 160.65625 C-37.94687689 160.61800613 -39.6884139 160.57895083 -41.42993164 160.5390625 C-45.66741633 160.44375713 -49.90498927 160.35947518 -54.14282227 160.28125 C-54.14521062 159.59471407 -54.14759897 158.90817814 -54.1500597 158.20083809 C-54.20929856 141.46509512 -54.28490519 124.72951326 -54.37853718 107.99392891 C-54.42342651 99.90058828 -54.46285684 91.80729099 -54.48925781 83.71386719 C-54.51229365 76.65635695 -54.54575363 69.59898463 -54.59152383 62.5415839 C-54.61538108 58.80770212 -54.63415878 55.0739563 -54.64043617 51.34000015 C-54.64765459 47.16283104 -54.6781542 42.98613261 -54.71044922 38.80908203 C-54.70901413 37.58268509 -54.70757904 36.35628815 -54.70610046 35.09272766 C-54.78346814 27.99867079 -55.64952746 21.93955399 -58.14282227 15.28125 C-55.35177884 14.6118777 -52.56005203 13.94563908 -49.76782227 13.28125 C-48.97375977 13.09046875 -48.17969727 12.8996875 -47.36157227 12.703125 C-46.22075195 12.43242187 -46.22075195 12.43242187 -45.05688477 12.15625 C-44.35515137 11.98867188 -43.65341797 11.82109375 -42.93041992 11.6484375 C-41.14282227 11.28125 -41.14282227 11.28125 -39.14282227 11.28125 C-39.47282227 8.64125 -39.80282227 6.00125 -40.14282227 3.28125 C-26.67903845 0.83546915 -13.67862857 -0.14786458 0 0 Z " fill="#31C191" transform="translate(254.142822265625,15.71875)"/>
<path d="M0 0 C0.74197632 0.00201416 1.48395264 0.00402832 2.24841309 0.00610352 C5.00291178 0.01651644 7.7573219 0.04443887 10.51171875 0.0703125 C19.76203125 0.1321875 19.76203125 0.1321875 29.19921875 0.1953125 C29.19921875 13.3953125 29.19921875 26.5953125 29.19921875 40.1953125 C34.47921875 40.1953125 39.75921875 40.1953125 45.19921875 40.1953125 C45.19921875 26.9953125 45.19921875 13.7953125 45.19921875 0.1953125 C55.75921875 0.1953125 66.31921875 0.1953125 77.19921875 0.1953125 C77.19921875 13.3953125 77.19921875 26.5953125 77.19921875 40.1953125 C82.47921875 40.1953125 87.75921875 40.1953125 93.19921875 40.1953125 C93.19921875 26.9953125 93.19921875 13.7953125 93.19921875 0.1953125 C99.11859375 0.1128125 105.03796875 0.0303125 111.13671875 -0.0546875 C112.98644287 -0.09110352 114.83616699 -0.12751953 116.74194336 -0.16503906 C126.43598915 -0.27872025 134.07382076 -0.17888212 141.7578125 6.37890625 C142.37785156 7.12269531 142.99789062 7.86648437 143.63671875 8.6328125 C144.59384766 9.74462891 144.59384766 9.74462891 145.5703125 10.87890625 C148.30541534 14.76839303 149.43388213 18.31797807 149.58776855 23.04943848 C149.6223114 24.00097809 149.65685425 24.9525177 149.69244385 25.93289185 C149.71981628 26.96630707 149.74718872 27.99972229 149.77539062 29.06445312 C149.81102112 30.16332855 149.84665161 31.26220398 149.88336182 32.39437866 C150.19579398 42.66453654 150.3713156 52.93865107 150.5033493 63.21259308 C150.59347898 70.08034394 150.72393742 76.94152815 150.96875 83.80566406 C152.19793673 118.98944545 149.60669401 145.83304351 131.20812225 176.36692047 C128.13147043 181.47475207 125.42594268 186.61926175 123.03710938 192.08398438 C122.7531002 192.72705788 122.46909103 193.37013138 122.17647552 194.03269196 C119.49441452 200.38203 118.86798693 205.30044211 121.09375 211.8125 C125.23686165 221.15182192 132.0272215 225.55807464 141.13671875 229.5703125 C141.91595703 229.92480469 142.69519531 230.27929688 143.49804688 230.64453125 C145.3937631 231.50516316 147.29584636 232.35174813 149.19921875 233.1953125 C148.09238048 242.22195473 145.05067343 246.82671798 138.39453125 252.71484375 C133.96952887 255.69896457 129.51056233 256.44528059 124.25454712 256.46273804 C123.088293 256.47126801 121.92203888 256.47979797 120.72044373 256.48858643 C119.45483109 256.48768005 118.18921844 256.48677368 116.88525391 256.48583984 C115.52790458 256.49182958 114.17055866 256.49863616 112.81321716 256.50619507 C109.13751436 256.52381605 105.46190476 256.52854876 101.78616381 256.52982664 C99.48682093 256.5312509 97.18750155 256.53552569 94.88816452 256.54082108 C86.85837049 256.55930777 78.82864273 256.56749331 70.79882812 256.56591797 C63.32677971 256.56471663 55.85502017 256.58582088 48.38304484 256.6174053 C41.9565113 256.64359765 35.53007195 256.65428404 29.10348547 256.65300715 C25.27018716 256.65249842 21.4371458 256.65813186 17.60390091 256.67936325 C13.9971466 256.6987961 10.39089303 256.69883625 6.78412056 256.68432999 C4.83907253 256.68125831 2.89402418 256.6978826 0.9490509 256.71520996 C-7.36117727 256.65572137 -12.84109253 255.65218361 -19.26171875 250.046875 C-19.89335938 249.31210937 -20.525 248.57734375 -21.17578125 247.8203125 C-21.82289062 247.09070313 -22.47 246.36109375 -23.13671875 245.609375 C-26.935086 240.09906758 -27.09228716 234.66033161 -27.06820679 228.21353149 C-27.07500346 226.87286151 -27.07500346 226.87286151 -27.08193743 225.50510728 C-27.09457849 222.51588457 -27.09296125 219.52684411 -27.09130859 216.53759766 C-27.09729398 214.39208238 -27.10409955 212.24656925 -27.11166382 210.10105896 C-27.12932889 204.27667117 -27.13401939 198.45234215 -27.13529539 192.62793016 C-27.13671713 188.98851313 -27.14098715 185.34911104 -27.14628983 181.70969772 C-27.164791 169.01153362 -27.17296023 156.31341151 -27.17138672 143.61523438 C-27.17018494 131.78070454 -27.19129428 119.94635697 -27.22287405 108.11187327 C-27.24902726 97.94864533 -27.25975443 87.78547696 -27.2584759 77.62221563 C-27.25796604 71.5533014 -27.2636631 65.48454919 -27.284832 59.41566849 C-27.3041984 53.70778703 -27.30434956 48.00022244 -27.28979874 42.29232979 C-27.28770765 40.19935582 -27.29242932 38.1063621 -27.30451965 36.01342201 C-27.31997531 33.15226313 -27.31066167 30.29219646 -27.29525757 27.43106079 C-27.30554469 26.60633856 -27.31583182 25.78161634 -27.32643068 24.93190253 C-27.24487236 18.05888766 -25.18930529 12.887209 -20.6171875 7.734375 C-19.50150391 6.78691406 -19.50150391 6.78691406 -18.36328125 5.8203125 C-17.62207031 5.17320312 -16.88085938 4.52609375 -16.1171875 3.859375 C-10.85044146 0.07584412 -6.26546548 -0.08064806 0 0 Z " fill="#31C191" transform="translate(106.80078125,191.8046875)"/>
<path d="M0 0 C2.36150009 1.17946841 4.7212045 2.36240312 7.07983398 3.54760742 C18.02748304 9.0428022 29.0207952 14.44333218 40.02416992 19.82592773 C43.03431017 21.29870748 46.04355087 22.7733135 49.05273438 24.24804688 C61.87127695 30.52444797 74.72677621 36.71960497 87.61068726 42.86062622 C92.45276254 45.16963061 97.28889227 47.49102749 102.125 49.8125 C103.61858032 50.52937988 103.61858032 50.52937988 105.14233398 51.26074219 C118.10494048 57.48630291 131.05244958 63.74320335 144 70 C141.98611327 76.76002831 139.23118196 82.86711243 136 89.125 C135.00742045 91.07856724 134.0165876 93.03302276 133.02734375 94.98828125 C132.27106689 96.48222412 132.27106689 96.48222412 131.49951172 98.00634766 C129.12554339 102.745781 126.83972225 107.52599767 124.5625 112.3125 C123.88344604 113.73852539 123.88344604 113.73852539 123.19067383 115.19335938 C122.26312836 117.14223419 121.33596652 119.09129164 120.40917969 121.04052734 C118.01255539 126.07377054 115.60029879 131.09949502 113.1875 136.125 C112.69386963 137.15343018 112.20023926 138.18186035 111.69165039 139.24145508 C107.50943624 147.94965455 103.30951029 156.64926504 99.10733032 165.34783936 C91.95121062 180.1619015 84.83531404 194.99518921 77.7265625 209.83203125 C77.18660645 210.95834961 76.64665039 212.08466797 76.09033203 213.24511719 C75.06207942 215.39001993 74.03437263 217.53518445 73.00732422 219.68066406 C70.38689963 225.14599175 67.72860606 230.58783562 65 236 C60.60967625 234.63229145 56.57101033 232.92880337 52.44140625 230.91015625 C51.51621941 230.46003677 51.51621941 230.46003677 50.57234192 230.00082397 C48.56744728 229.02465476 46.56502205 228.04352571 44.5625 227.0625 C42.45069962 226.0331703 40.33824458 225.00519239 38.22576904 223.97724915 C36.81219092 223.28926968 35.39882004 222.60086423 33.98565674 221.91203308 C28.12924197 219.05809526 22.25627505 216.23985138 16.375 213.4375 C7.73771453 209.31696723 -0.88386133 205.16450441 -9.5 201 C-17.2766018 197.24147811 -25.05508163 193.48721879 -32.84863281 189.76391602 C-34.68454423 188.88680498 -36.51984194 188.00840808 -38.35449219 187.12866211 C-43.03740982 184.8844537 -47.72684887 182.6559412 -52.43063354 180.45573425 C-54.92946225 179.2848913 -57.42429316 178.10567898 -59.91864014 176.92532349 C-61.71132048 176.0807234 -63.5091798 175.24714371 -65.30712891 174.41381836 C-66.39687012 173.89698486 -67.48661133 173.38015137 -68.609375 172.84765625 C-69.57842773 172.39398682 -70.54748047 171.94031738 -71.54589844 171.47290039 C-74.16264486 169.90238396 -75.48254869 168.6340965 -77 166 C-76.95997077 159.61133561 -74.11851614 154.4987709 -71.3125 148.875 C-70.30725308 146.81772719 -69.30204669 144.76043457 -68.296875 142.703125 C-67.76126953 141.61580078 -67.22566406 140.52847656 -66.67382812 139.40820312 C-64.07057361 134.10752736 -61.51168375 128.78551098 -58.94924927 123.46502686 C-57.759054 120.99534199 -56.5661813 118.52695459 -55.37330627 116.05856323 C-49.89254355 104.71674799 -44.44597856 93.35854698 -39 82 C-37.04210148 77.91645796 -35.08375391 73.8331318 -33.125 69.75 C-32.38890503 68.21484741 -32.38890503 68.21484741 -31.63793945 66.64868164 C-28.96665742 61.08181805 -26.28498566 55.52019836 -23.58984375 49.96484375 C-15.55124745 33.38900011 -7.70235057 16.73489592 0 0 Z " fill="#EBEBEB" transform="translate(319,233)"/>
<path d="M0 0 C0 39.27 0 78.54 0 119 C-13.2 119.33 -26.4 119.66 -40 120 C-54.06241956 125.85934148 -62.2201752 130.55666901 -68.63456726 144.16131592 C-71.91552704 152.25944953 -71.70711934 160.21875564 -71.65942383 168.79394531 C-71.66789177 170.55925116 -71.6785426 172.32454766 -71.69119263 174.08982849 C-71.71917747 178.84736262 -71.71689613 183.60444339 -71.70889878 188.3620348 C-71.70576019 193.34687161 -71.73084754 198.33156742 -71.75285339 203.31634521 C-71.79021198 212.74016032 -71.80243654 222.16383114 -71.8054778 231.587713 C-71.81017752 242.32304364 -71.84313014 253.05823054 -71.87837565 263.79349756 C-71.95020214 285.86231539 -71.98680965 307.9310743 -72 330 C-74.37699017 327.05894265 -76.60175038 324.20164129 -78.5078125 320.93359375 C-78.93707031 320.20076172 -79.36632812 319.46792969 -79.80859375 318.71289062 C-80.24300781 317.96201172 -80.67742187 317.21113281 -81.125 316.4375 C-81.56714844 315.68275391 -82.00929687 314.92800781 -82.46484375 314.15039062 C-84.41374932 310.80898908 -86.29676671 307.47465395 -88 304 C-90.64 304.66 -93.28 305.32 -96 306 C-104.45388995 288.15289899 -110.95511296 270.47259904 -115.3125 251.1875 C-115.67637817 249.57959595 -115.67637817 249.57959595 -116.04760742 247.93920898 C-119.48410732 231.97387911 -120.40720616 216.46422227 -120.375 200.1875 C-120.37478851 199.1988797 -120.37457703 198.2102594 -120.37435913 197.19168091 C-120.34017122 181.13907937 -119.37588227 165.74209686 -116 150 C-115.81808105 149.11779785 -115.63616211 148.2355957 -115.44873047 147.32666016 C-108.17570491 112.8724077 -92.97805383 79.55162504 -71 52 C-70.28328125 51.09121094 -69.5665625 50.18242188 -68.828125 49.24609375 C-63.18554697 42.21288035 -57.18080803 35.5584729 -51 29 C-49.96552734 27.90171875 -49.96552734 27.90171875 -48.91015625 26.78125 C-43.6617603 21.37186031 -37.89127185 16.6886398 -32 12 C-31.03449219 11.22527344 -30.06898437 10.45054688 -29.07421875 9.65234375 C-26.71953074 7.76393059 -24.36145269 5.87994173 -22 4 C-19.11562221 5.29299694 -17.12780579 6.65941363 -15 9 C-14.00097656 8.3503125 -13.00195312 7.700625 -11.97265625 7.03125 C-10.66934775 6.18738119 -9.36595815 5.34363764 -8.0625 4.5 C-7.40314453 4.07074219 -6.74378906 3.64148437 -6.06445312 3.19921875 C-1.11328125 0 -1.11328125 0 0 0 Z " fill="#FEA387" transform="translate(136,57)"/>
<path d="M0 0 C0.75796875 0.35191406 1.5159375 0.70382813 2.296875 1.06640625 C6.29207522 3.09752314 9.38468377 5.21125184 12.4375 8.5 C17.73178175 14.06203852 23.83061249 17.23808514 31.5625 17.5625 C38.68849864 17.20067214 44.1010266 14.54070495 49.6875 10.25 C51.94363558 8.59412067 53.14527171 7.96290935 55.9375 7.25 C62.85266377 8.9435095 67.49431769 15.49259943 72.35498047 20.40087891 C103.6703032 51.98178432 140.91422506 68.41335267 185 73 C187.77698452 81.04190376 189.06591797 89.08595274 190.1875 97.5 C190.45336914 99.41039062 190.45336914 99.41039062 190.72460938 101.359375 C192 110.61703668 192 110.61703668 192 113 C194.64 113 197.28 113 200 113 C200 120.26 200 127.52 200 135 C182.38471595 127.28421442 165.16125777 118.81681319 147.89125061 110.36471558 C141.56831397 107.27228503 135.22990256 104.21375463 128.875 101.1875 C121.03151453 97.45181609 113.20141281 93.68933181 105.37969971 89.9083252 C103.51696584 89.00819838 101.65382679 88.10891634 99.79052734 87.20996094 C98.56868339 86.62044582 97.34684094 86.03092761 96.125 85.44140625 C95.52491119 85.1518808 94.92482239 84.86235535 94.30654907 84.5640564 C90.3677154 82.6627694 86.43322498 80.75270055 82.5 78.83984375 C62.5418872 67.52934853 62.5418872 67.52934853 40.78125 66.734375 C33.8965028 69.86847634 29.83753951 74.70923011 26.375 81.375 C25.87250732 82.34058838 25.87250732 82.34058838 25.35986328 83.32568359 C21.4159895 90.9902604 17.74226683 98.78993723 14.05078125 106.578125 C11.04849549 112.91136366 8.00463514 119.22422251 4.95300293 125.53378296 C3.47685995 128.58587804 2.00196146 131.63857399 0.52734375 134.69140625 C0.23654938 135.29342361 -0.054245 135.89544098 -0.35385132 136.51570129 C-5.25564923 146.66763057 -10.12737584 156.83404482 -15 167 C-15.33 167 -15.66 167 -16 167 C-16.00586624 165.99934509 -16.01173248 164.99869019 -16.01777649 163.9677124 C-16.07522327 154.49409979 -16.14809774 145.02071191 -16.23571491 135.54732895 C-16.28026369 130.67805415 -16.31955315 125.80886004 -16.34643555 120.93945312 C-16.3726241 116.23194973 -16.4131341 111.52475947 -16.46318626 106.81745148 C-16.47975054 105.02994968 -16.49132932 103.24239385 -16.49761391 101.45482635 C-16.55504206 86.60894497 -17.23433059 72.45530799 -27.88671875 60.96484375 C-37.18943773 52.35663031 -47.55141325 49.77336275 -59.97265625 49.5859375 C-60.69094604 49.56829346 -61.40923584 49.55064941 -62.14929199 49.5324707 C-64.78681649 49.47025375 -67.42468733 49.42348456 -70.0625 49.375 C-78.9415625 49.189375 -78.9415625 49.189375 -88 49 C-88 35.47 -88 21.94 -88 8 C-85.03 8.99 -82.06 9.98 -79 11 C-76.67602077 11.39328879 -74.34379715 11.75065988 -72 12 C-72 14.64 -72 17.28 -72 20 C-58.8582643 18.66977195 -50.62807797 13.54640077 -40.7109375 5.12109375 C-29.20648703 -3.88022701 -13.40896839 -6.37181895 0 0 Z " fill="#FDA387" transform="translate(288,127)"/>
<path d="M0 0 C2.390625 1.35546875 2.390625 1.35546875 4.25 3.1875 C5.23226562 4.15429688 5.23226562 4.15429688 6.234375 5.140625 C6.81703125 5.75421875 7.3996875 6.3678125 8 7 C8.825 7.804375 9.65 8.60875 10.5 9.4375 C12.58461125 12.99871088 12.81622551 16.03144073 12 20 C10.11963594 23.52531649 7.73271305 26.56686762 5.25 29.6875 C4.61578125 30.51572266 3.9815625 31.34394531 3.328125 32.19726562 C0.80806512 35.47596854 -1.75723292 38.70606143 -4.390625 41.89453125 C-6.18039471 43.99971019 -6.18039471 43.99971019 -7 47 C-5.96166016 47.35928589 -5.96166016 47.35928589 -4.90234375 47.72583008 C-1.48211996 49.22735666 1.41569597 51.22523026 4.4375 53.38671875 C5.674066 54.25124232 6.91105812 55.11515664 8.1484375 55.97851562 C10.08191683 57.33505379 12.01181245 58.69592703 13.93457031 60.06762695 C15.80139127 61.39594186 17.68055565 62.7049545 19.5625 64.01171875 C20.13347412 64.42620773 20.70444824 64.84069672 21.29272461 65.26774597 C23.86971716 67.03928525 25.48643063 68.01821536 28.65698242 67.90576172 C31.02938724 66.98863951 32.8615881 65.97687673 34.92578125 64.49609375 C35.64056641 64.00302734 36.35535156 63.50996094 37.09179688 63.00195312 C38.56629534 61.96319035 40.03513708 60.91634886 41.49804688 59.86132812 C46.60603835 56.36590436 49.79267018 55.13386096 56 56 C58.14453125 57.14453125 58.14453125 57.14453125 59.8125 58.8125 C60.45960938 59.4415625 61.10671875 60.070625 61.7734375 60.71875 C62.87558594 61.84796875 62.87558594 61.84796875 64 63 C64.96941206 63.94990272 65.94089127 64.8976989 66.9140625 65.84375 C75.79945153 74.54602363 75.79945153 74.54602363 76.5 79.625 C76.42167282 83.20538709 75.68445357 84.83099658 73.26953125 87.44921875 C72.63289551 88.14144531 71.99625977 88.83367187 71.34033203 89.546875 C70.56802246 90.35640625 69.79571289 91.1659375 69 92 C68.54647156 92.47767822 68.09294312 92.95535645 67.62567139 93.44750977 C64.42289814 96.81233321 61.18038433 100.13535236 57.9128418 103.43725586 C56.76256337 104.60413658 55.61768259 105.77636287 54.47827148 106.95385742 C46.03626884 115.67487438 37.70049331 123.75975493 24.875 124.375 C15.95818033 124.19509422 7.94117174 117.88073717 0.625 113.25 C-1.22190986 112.09385889 -3.06960856 110.93897726 -4.91796875 109.78515625 C-5.89813965 109.1730127 -6.87831055 108.56086914 -7.88818359 107.93017578 C-13.46179368 104.47301578 -19.0764167 101.08333201 -24.6875 97.6875 C-33.81366114 92.1602789 -42.91909178 86.60141798 -52 81 C-61.04188497 75.42394121 -70.10481481 69.88422329 -79.1875 64.375 C-79.7696225 64.02175659 -80.351745 63.66851318 -80.95150757 63.30456543 C-87.17511446 59.52797919 -93.40191001 55.75672978 -99.6328125 51.9921875 C-101.69272766 50.74482358 -103.75262443 49.4974293 -105.8125 48.25 C-106.74280029 47.68974121 -107.67310059 47.12948242 -108.6315918 46.55224609 C-122.39582036 38.20835927 -122.39582036 38.20835927 -124 35 C-124.61300412 31.78172837 -124.53305457 29.79404569 -122.68359375 27.0390625 C-114.31524377 17.26662695 -104.434431 8.83473361 -91.203125 7.6640625 C-77.99598858 7.5335572 -69.09843463 10.8198999 -58.21264648 18.08959961 C-54.80085744 20.36483806 -54.80085744 20.36483806 -50.84838867 20.88769531 C-46.65865678 19.58197275 -42.92129961 17.56200346 -39.04296875 15.52734375 C-37.27308459 14.61855978 -35.50289254 13.71037522 -33.73242188 12.80273438 C-30.95753706 11.37196891 -28.18545136 9.93642898 -25.41870117 8.48999023 C-22.73818008 7.09206995 -20.04785623 5.71473829 -17.35546875 4.33984375 C-16.53749313 3.90550522 -15.71951752 3.47116669 -14.87675476 3.02366638 C-9.61536129 0.35845458 -5.9046859 -0.58961934 0 0 Z " fill="#3B322C" transform="translate(412,16)"/>
<path d="M0 0 C0.7734375 -0.01224609 1.546875 -0.02449219 2.34375 -0.03710938 C17.81844461 -0.07605575 30.36813262 6.83757749 41.40234375 17.2109375 C51.93632077 28.08863354 56.60215917 41.32179179 56.48291016 56.19384766 C56.0680073 73.8210573 48.82715484 87.32340344 36.26171875 99.41015625 C25.19123507 109.19087484 10.43331616 112.60180247 -4.0234375 112.46484375 C-19.72450905 111.29631536 -33.37554025 102.75059275 -43.56640625 91.11328125 C-53.50865368 78.43006336 -57.31455158 63.08845275 -55.75 47.1875 C-52.70984774 31.81594365 -44.57909989 18.36593895 -31.62841797 9.43994141 C-25.64277112 5.51764472 -19.78891605 2.66382696 -12.75 1.1875 C-12.13044434 1.01694092 -11.51088867 0.84638184 -10.87255859 0.6706543 C-7.27615888 -0.14798787 -3.67380225 0.00300147 0 0 Z " fill="#3B332D" transform="translate(359.75,277.8125)"/>
<path d="M0 0 C0.91136719 0.31839844 1.82273437 0.63679688 2.76171875 0.96484375 C11.80132923 4.4024421 19.19779337 9.49512536 26.3125 16 C29.61585717 18.45831231 30.95968456 18.43110065 35 18 C37.65868497 16.58875021 37.65868497 16.58875021 40.0625 14.625 C46.91631248 9.36283118 52.42734146 8.06844563 61 9 C70.80961151 11.62954273 77.58162914 19.46306611 84.44067383 26.50732422 C110.67018576 53.41801113 141.8128277 68.52103788 179 73 C176.32070327 65.19013505 173.56465581 57.68126804 169.8203125 50.3046875 C169 48 169 48 169.03125 45.90234375 C170.49341442 43.03107732 172.56222505 42.1750962 175.375 40.6875 C176.35210937 40.15511719 177.32921875 39.62273437 178.3359375 39.07421875 C181 38 181 38 184 39 C185.05566406 40.61621094 185.05566406 40.61621094 186.015625 42.734375 C186.37624023 43.52505371 186.73685547 44.31573242 187.10839844 45.13037109 C187.48512695 45.99484863 187.86185547 46.85932617 188.25 47.75 C188.64477539 48.6467041 189.03955078 49.5434082 189.44628906 50.46728516 C200.0660856 75.09681328 208 103.00733478 208 130 C202.72 130 197.44 130 192 130 C190.68343941 127.36687882 190.4953663 124.95250207 190.09765625 122.03125 C189.92943359 120.81953125 189.76121094 119.6078125 189.58789062 118.359375 C189.41451172 117.08578125 189.24113281 115.8121875 189.0625 114.5 C187.94067512 106.27612785 186.76509979 98.1135557 185 90 C183.42025391 89.94392578 183.42025391 89.94392578 181.80859375 89.88671875 C146.71971227 88.40570785 112.32005764 74.31316679 86 51 C85.04867187 50.15824219 84.09734375 49.31648438 83.1171875 48.44921875 C76.92705149 42.89513899 71.00479102 37.09443916 65.18798828 31.15136719 C61.36026975 27.11450613 61.36026975 27.11450613 56.1875 25.7265625 C52.4119399 26.05044633 50.95105394 27.05766597 48 29.375 C40.91341356 34.58727383 34.7804387 36.14527461 26 35 C19.61599404 32.92148643 15.27495089 29.55673867 10.76953125 24.703125 C7.61696469 21.66886667 3.9410161 19.82975747 0 18 C-0.67546875 17.67902344 -1.3509375 17.35804687 -2.046875 17.02734375 C-11.63738174 13.15148106 -23.06287889 13.70645515 -32.51171875 17.66796875 C-36.7661684 19.94546848 -40.33704076 22.88445718 -44 26 C-53.34022743 33.47573336 -59.85276318 36.44785287 -72 37 C-72 31.72 -72 26.44 -72 21 C-70.4325 20.71125 -68.865 20.4225 -67.25 20.125 C-61.5434979 18.59115039 -58.17786909 15.89100026 -53.8371582 11.98486328 C-39.68211769 -0.39544139 -18.153985 -6.6298492 0 0 Z " fill="#3B322C" transform="translate(288,110)"/>
<path d="M0 0 C3.79253782 1.47395575 5.28316326 3.43622449 7.375 6.875 C7.91898437 7.73867187 8.46296875 8.60234375 9.0234375 9.4921875 C10 12 10 12 9.4765625 14.05859375 C7.58385774 16.54715 5.46653845 18.26402045 3 20.1875 C-2.52906227 24.60501279 -7.83864126 29.15751831 -13 34 C-13.52464844 34.49064941 -14.04929687 34.98129883 -14.58984375 35.48681641 C-24.18871459 44.53979303 -32.31866211 54.28487782 -40 65 C-40.4429541 65.6089209 -40.8859082 66.2178418 -41.34228516 66.84521484 C-62.64044252 96.34189456 -75.7517614 131.69594919 -79.74951172 167.76293945 C-79.9111167 169.20620112 -80.08867847 170.64780761 -80.28564453 172.08666992 C-81.20426689 179.10918951 -81.14697618 186.11483356 -81.125 193.1875 C-81.12886719 194.41275391 -81.13273437 195.63800781 -81.13671875 196.90039062 C-81.10236578 229.48417882 -73.49827268 258.71951092 -60.9362793 288.58422852 C-60.10972239 290.7168962 -59.4916683 292.76982891 -59 295 C-61.12232979 296.17176518 -63.24757791 297.33754785 -65.375 298.5 C-66.27992187 299.00080078 -66.27992187 299.00080078 -67.203125 299.51171875 C-71.7734375 302 -71.7734375 302 -74 302 C-82.48163708 284.17668958 -88.95801597 266.45975079 -93.3125 247.1875 C-93.67637817 245.57959595 -93.67637817 245.57959595 -94.04760742 243.93920898 C-97.48410732 227.97387911 -98.40720616 212.46422227 -98.375 196.1875 C-98.37478851 195.1988797 -98.37457703 194.2102594 -98.37435913 193.19168091 C-98.34017122 177.13907937 -97.37588227 161.74209686 -94 146 C-93.81808105 145.11779785 -93.63616211 144.2355957 -93.44873047 143.32666016 C-86.17570491 108.8724077 -70.97805383 75.55162504 -49 48 C-48.28328125 47.09121094 -47.5665625 46.18242188 -46.828125 45.24609375 C-41.18554697 38.21288035 -35.18080803 31.5584729 -29 25 C-27.96552734 23.90171875 -27.96552734 23.90171875 -26.91015625 22.78125 C-21.6617603 17.37186031 -15.89127185 12.6886398 -10 8 C-9.03449219 7.22527344 -8.06898437 6.45054688 -7.07421875 5.65234375 C-4.71953074 3.76393059 -2.36145269 1.87994173 0 0 Z " fill="#3B312B" transform="translate(114,61)"/>
<path d="M0 0 C2.74220914 1.41027899 3.44957857 3.01143142 4.57363319 5.81915474 C5.88756069 10.75461218 5.57366622 15.87378216 5.52807617 20.94506836 C5.52873329 22.86317825 5.52873329 22.86317825 5.52940369 24.82003784 C5.53026099 28.30930962 5.51267867 31.79826916 5.49168181 35.28746867 C5.47287048 38.9402918 5.47116107 42.59312285 5.46760559 46.24598694 C5.45829816 53.15547773 5.43370216 60.06482536 5.40355712 66.97425324 C5.36997242 74.8436531 5.3535169 82.71305995 5.33847082 90.58251369 C5.3071513 106.76343937 5.25215569 122.94416796 5.1875 139.125 C-5.3725 139.125 -15.9325 139.125 -26.8125 139.125 C-26.8125 96.885 -26.8125 54.645 -26.8125 11.125 C-5.00762195 0.22256098 -5.00762195 0.22256098 0 0 Z " fill="#FDA488" transform="translate(178.8125,36.875)"/>
<path d="M0 0 C13.02554644 5.66646389 25.82053669 11.72455043 38.5625 18 C42.04206044 19.71018827 45.52261403 21.41833988 49.00390625 23.125 C49.84031647 23.53524414 50.67672668 23.94548828 51.53848267 24.36816406 C59.64968103 28.33665603 67.81560373 32.18518823 76 36 C73.06654707 39.21319944 69.86401542 40.34241313 65.8125 41.6875 C65.15830078 41.91244141 64.50410156 42.13738281 63.83007812 42.36914062 C62.22271116 42.92057309 60.61169517 43.46134891 59 44 C59.495 47.96 59.495 47.96 60 52 C40.48462475 58.04191184 20.01066489 63.26223946 -0.5625 63.0625 C-2.38974609 63.04896484 -2.38974609 63.04896484 -4.25390625 63.03515625 C-5.16011719 63.02355469 -6.06632812 63.01195312 -7 63 C-7 60.36 -7 57.72 -7 55 C-14.26 55 -21.52 55 -29 55 C-27.68 52.36 -26.36 49.72 -25 47 C-24.17581924 43.70327696 -23.86475688 41.38639355 -23.875 38.0625 C-23.87242187 37.22847656 -23.86984375 36.39445312 -23.8671875 35.53515625 C-24.00325652 32.93783877 -24.42878507 30.53419956 -25 28 C-24.29875 27.67128906 -23.5975 27.34257812 -22.875 27.00390625 C-10.57604491 20.83771817 -4.95237303 12.39746593 0 0 Z " fill="#FCA287" transform="translate(271,433)"/>
<path d="M0 0 C0.99 0.495 0.99 0.495 2 1 C1.39526855 1.77077881 1.39526855 1.77077881 0.77832031 2.55712891 C-1.0666888 4.91134358 -2.90836471 7.26814531 -4.75 9.625 C-5.38421875 10.43324219 -6.0184375 11.24148437 -6.671875 12.07421875 C-12.94080489 19.41005373 -12.94080489 19.41005373 -16.5625 28.0625 C-15.51544171 33.53047106 -10.82141457 36.21885716 -6.44091797 39.19799805 C-4.62868014 40.39200695 -2.81219039 41.57957972 -0.9921875 42.76171875 C-0.02975128 43.39358597 0.93268494 44.02545319 1.92428589 44.6764679 C4.98754355 46.68577841 8.05614435 48.68675241 11.125 50.6875 C13.19697576 52.04437051 15.26859436 53.40178658 17.33984375 54.75976562 C21.89075264 57.74231206 26.44506601 60.71957587 31.00247192 63.69218445 C32.67381179 64.78643904 34.33782046 65.89188031 36 67 C40.40153717 67.84746014 42.79216708 66.72359484 46.3828125 64.33984375 C47.97312919 63.21921294 49.55366748 62.08459838 51.125 60.9375 C52.70265023 59.78930706 54.28830863 58.65201467 55.8828125 57.52734375 C56.57777832 57.01937256 57.27274414 56.51140137 57.98876953 55.98803711 C60 55 60 55 62.14794922 55.24438477 C64.30990842 56.12643904 65.47869306 57.25049702 67 59 C65.3984588 62.9137844 62.71867855 65.63723254 59.80078125 68.60546875 C59.28750778 69.13014236 58.77423431 69.65481598 58.2454071 70.19538879 C57.15968048 71.29995916 56.0710549 72.40168656 54.97973633 73.50073242 C53.32122052 75.17867733 51.685267 76.87672678 50.04882812 78.57617188 C48.98830839 79.64975218 47.92649999 80.72206133 46.86328125 81.79296875 C46.38071365 82.30022995 45.89814606 82.80749115 45.4009552 83.3301239 C41.79412701 86.89123244 39.06016143 88.03028139 34 88 C31 86.77514648 31 86.77514648 28 84.87109375 C27.45121185 84.53057983 26.90242371 84.19006592 26.33700562 83.8392334 C24.54638075 82.7227302 22.77383032 81.58045885 21 80.4375 C19.7455281 79.64917078 18.48981312 78.86281649 17.23291016 78.07836914 C14.68657832 76.48652975 12.14625769 74.88573667 9.61035156 73.27734375 C4.57606443 70.0912798 -0.52524417 67.01724313 -5.625 63.9375 C-14.75469974 58.38755959 -23.85186598 52.78531766 -32.9465332 47.17822266 C-41.63372604 41.82780253 -50.35161299 36.52943993 -59.07785034 31.24304199 C-70.09619937 24.56651235 -81.06327704 17.80935204 -92 11 C-87.50338182 6.27903861 -83.20343729 3.89635544 -76.6875 3.5625 C-69.40592702 3.90344322 -63.69702423 6.86770816 -57.64453125 10.75 C-56.86070068 11.24975342 -56.07687012 11.74950684 -55.26928711 12.2644043 C-53.69736227 13.28077785 -52.1388323 14.31823578 -50.59594727 15.37817383 C-49.86045654 15.85794678 -49.12496582 16.33771973 -48.3671875 16.83203125 C-47.71862793 17.27264893 -47.07006836 17.7132666 -46.40185547 18.16723633 C-41.31130407 19.93221608 -36.51330507 18.40580804 -31.81884766 16.21826172 C-30.34447938 15.46727364 -28.87639258 14.70385522 -27.4140625 13.9296875 C-26.63106781 13.52920197 -25.84807312 13.12871643 -25.04135132 12.71609497 C-22.56314016 11.44717039 -20.09357647 10.16255473 -17.625 8.875 C-15.13428252 7.58186289 -12.64191301 6.29240668 -10.14437866 5.01248169 C-8.59547178 4.21821009 -7.05057299 3.4160645 -5.51016235 2.60543823 C-3.70330099 1.67643246 -1.85462125 0.829566 0 0 Z " fill="#DCDCDC" transform="translate(401,36)"/>
<path d="M0 0 C5.28 0 10.56 0 16 0 C16 60.72 16 121.44 16 184 C10.72 184 5.44 184 0 184 C0 123.28 0 62.56 0 0 Z " fill="#3A312B" transform="translate(208,248)"/>
<path d="M0 0 C5.28 0 10.56 0 16 0 C16 60.72 16 121.44 16 184 C10.72 184 5.44 184 0 184 C0 123.28 0 62.56 0 0 Z " fill="#3A312B" transform="translate(160,248)"/>
<path d="M0 0 C5.28 0 10.56 0 16 0 C16 60.72 16 121.44 16 184 C10.72 184 5.44 184 0 184 C0 123.28 0 62.56 0 0 Z " fill="#3A312B" transform="translate(112,248)"/>
<path d="M0 0 C3.99240285 0.97807281 7.51907733 2.77795918 11.16946411 4.6317749 C12.00583908 5.04447632 12.84221405 5.45717773 13.70393372 5.88238525 C16.40490776 7.21788866 19.0975646 8.56932478 21.79055786 9.9208374 C23.66003528 10.84807243 25.53015619 11.77401114 27.40090942 12.69866943 C31.05983592 14.50794178 34.71639513 16.32185258 38.37112427 18.1395874 C44.04651215 20.95753765 49.75257207 23.70602546 55.47805786 26.4208374 C57.22563141 27.25249532 58.97302686 28.08452758 60.72024536 28.91693115 C61.59390747 29.33313721 62.46756958 29.74934326 63.3677063 30.17816162 C69.12117979 32.92918232 74.86116994 35.70824133 80.60305786 38.4833374 C99.43998996 47.58454986 118.27743075 56.6830957 137.22805786 65.5458374 C136.5042933 69.03987324 135.1652058 72.06582645 133.66555786 75.2958374 C133.2105188 76.28068115 132.75547974 77.2655249 132.28665161 78.2802124 C131.93731567 79.02786865 131.58797974 79.7755249 131.22805786 80.5458374 C126.53337719 79.10239827 122.18832794 77.18761673 117.79446411 75.01849365 C117.0888887 74.67402191 116.38331329 74.32955017 115.65635681 73.97463989 C114.14851885 73.23802137 112.64149497 72.49973446 111.13522339 71.75991821 C107.95849277 70.19966922 104.77786506 68.64744488 101.59738159 67.09486389 C100.00738283 66.31864314 98.41757903 65.54202289 96.82797241 64.76499939 C90.76881051 61.80432514 84.69274524 58.88073583 78.60305786 55.9833374 C69.29048271 51.54694079 60.00729018 47.0514045 50.72805786 42.5458374 C41.11343809 37.87817816 31.49495135 33.21949751 21.85305786 28.6083374 C20.94716919 28.17384277 20.04128052 27.73934814 19.10794067 27.29168701 C14.65663519 25.16172186 10.19336229 23.06458902 5.70462036 21.0145874 C4.82338501 20.60845215 3.94214966 20.20231689 3.03421021 19.78387451 C1.38509739 19.02547163 -0.26798977 18.2756241 -1.92575073 17.53631592 C-8.75031859 14.38692214 -8.75031859 14.38692214 -10.77194214 10.5458374 C-11.46051662 6.50046234 -11.09834853 5.02524679 -8.77194214 1.6083374 C-5.37750463 -0.72533838 -3.9645082 -0.62602549 0 0 Z " fill="#BBBBBB" transform="translate(339.7719421386719,208.45416259765625)"/>
<path d="M0 0 C2.83098272 1.45593397 3.41736288 3.26190384 4.57363319 6.13835335 C5.56486067 9.34624588 5.54521976 12.3696469 5.52807617 15.71264648 C5.52873329 16.7968261 5.52873329 16.7968261 5.52940369 17.90290833 C5.52733076 20.2675882 5.50407197 22.63153932 5.48046875 24.99609375 C5.47486744 26.64518344 5.47059987 28.29427815 5.46760559 29.94337463 C5.45619886 34.26547234 5.42676807 38.58726343 5.39349365 42.90924072 C5.36270239 47.32682143 5.34908097 51.74445209 5.33398438 56.16210938 C5.30189395 64.81654632 5.25074868 73.47073492 5.1875 82.125 C4.7535643 81.74580414 4.3196286 81.36660828 3.87254333 80.97592163 C0.03227879 77.64781603 -3.90436768 74.53527106 -7.96484375 71.4765625 C-17.55290755 63.78378074 -26.82067936 56.19153096 -28.27079773 43.33831787 C-28.95193164 32.58048759 -28.10653124 21.80772562 -26.8125 11.125 C-24.31502977 9.84898669 -21.81472064 8.57913829 -19.3125 7.3125 C-18.61640625 6.95607422 -17.9203125 6.59964844 -17.203125 6.23242188 C-5.32130282 0.23650235 -5.32130282 0.23650235 0 0 Z " fill="#32C191" transform="translate(178.8125,36.875)"/>
<path d="M0 0 C3.66623826 0.73324765 5.79868655 1.21086034 8.96630859 2.77490234 C10.08676575 3.32268341 10.08676575 3.32268341 11.2298584 3.88153076 C12.0279895 4.27898499 12.82612061 4.67643921 13.6484375 5.0859375 C14.4902356 5.49918274 15.33203369 5.91242798 16.19934082 6.3381958 C18.92718207 7.67854326 21.65106411 9.02673623 24.375 10.375 C27.16909327 11.75047381 29.96415403 13.12396685 32.75930786 14.49728394 C34.60311645 15.403304 36.44660366 16.3099784 38.2897644 17.21731567 C46.37178222 21.19328821 54.49053098 25.08738225 62.63818359 28.92724609 C63.86529053 29.50853271 63.86529053 29.50853271 65.1171875 30.1015625 C65.80409668 30.42463379 66.49100586 30.74770508 67.19873047 31.08056641 C69 32 69 32 72 34 C70.50829734 38.9723422 68.39542583 43.41845739 66 48 C62.58710884 47.42189469 59.76623779 46.57393758 56.66650391 45.04150391 C55.83948471 44.63629517 55.01246552 44.23108643 54.16038513 43.81359863 C53.27472366 43.37237671 52.38906219 42.93115479 51.4765625 42.4765625 C50.54566299 42.0187439 49.61476349 41.56092529 48.65565491 41.0892334 C45.64284989 39.60633991 42.63397836 38.11564048 39.625 36.625 C36.55282126 35.11094504 33.4796242 33.59897141 30.40635681 32.08712769 C28.38931821 31.09472592 26.37260244 30.10166772 24.35621643 29.10794067 C16.82335958 25.39698481 9.26984456 21.73377694 1.6875 18.125 C0.76598145 17.68623535 -0.15553711 17.2474707 -1.10498047 16.79541016 C-3.06911489 15.8617699 -5.03437567 14.9304994 -7 14 C-4.69 9.38 -2.38 4.76 0 0 Z " fill="#3D342E" transform="translate(289,389)"/>
<path d="M0 0 C0.8394882 2.10171867 1.67139656 4.20646625 2.5 6.3125 C3.19609375 8.07013672 3.19609375 8.07013672 3.90625 9.86328125 C5 13 5 13 5 16 C-17.02558806 22.81906751 -38.89841254 27.22428726 -62 27 C-62 21.72 -62 16.44 -62 11 C-60.00839844 10.74605469 -58.01679688 10.49210937 -55.96484375 10.23046875 C-37.99590313 7.90886213 -17.52632948 0 0 0 Z " fill="#3C322C" transform="translate(326,469)"/>
<path d="M0 0 C2.97660555 0.03185931 5.9526822 0.04105865 8.92944336 0.046875 C10.83374676 0.05602152 12.73804478 0.06638965 14.64233398 0.078125 C15.52655533 0.08237488 16.41077667 0.08662476 17.3217926 0.09100342 C18.54599159 0.10541473 18.54599159 0.10541473 19.79492188 0.12011719 C20.50959122 0.12694519 21.22426056 0.13377319 21.96058655 0.14080811 C23.85717773 0.28125 23.85717773 0.28125 26.85717773 1.28125 C27.06529908 7.10864766 26.30785238 11.63917973 24.85717773 17.28125 C23.79619873 17.27077637 22.73521973 17.26030273 21.64208984 17.24951172 C1.94392057 17.07197493 -17.55045498 16.93936618 -37.14282227 19.28125 C-37.64687035 17.17804937 -38.14592735 15.07365209 -38.64282227 12.96875 C-39.06047852 11.21111328 -39.06047852 11.21111328 -39.48657227 9.41796875 C-40.14282227 6.28125 -40.14282227 6.28125 -40.14282227 3.28125 C-26.67903845 0.83546915 -13.67862857 -0.14786458 0 0 Z " fill="#39312B" transform="translate(254.142822265625,15.71875)"/>
<path d="M0 0 C0.33 0 0.66 0 1 0 C0.53746051 7.4433278 -0.92339642 14.24251231 -3.0625 21.375 C-3.53103394 22.94592407 -3.53103394 22.94592407 -4.0090332 24.54858398 C-10.95416605 47.30178428 -20.86412797 69.75236819 -35 89 C-35.75152344 90.03382813 -36.50304687 91.06765625 -37.27734375 92.1328125 C-41.32073142 97.60921443 -45.48481173 102.90594144 -50 108 C-50.33 107.34 -50.66 106.68 -51 106 C-50.00292969 103.47583008 -50.00292969 103.47583008 -48.421875 100.26953125 C-47.84373047 99.08617187 -47.26558594 97.9028125 -46.66992188 96.68359375 C-46.0300024 95.39320215 -45.39002705 94.10283825 -44.75 92.8125 C-44.09874064 91.48480078 -43.44835767 90.15667133 -42.79882812 88.828125 C-41.48534365 86.14259694 -40.16861183 83.45870071 -38.84960938 80.77587891 C-36.35964901 75.70302304 -33.92765587 70.60290049 -31.5 65.5 C-27.08594787 56.25006668 -22.63515714 47.01805688 -18.17572021 37.78994751 C-12.09401262 25.20437247 -6.04161805 12.60487496 0 0 Z " fill="#FAA186" transform="translate(483,299)"/>
<path d="M0 0 C15.84 0 31.68 0 48 0 C48 3.96 48 7.92 48 12 C48.41398899 15.51526162 48.41398899 15.51526162 49 18 C41.54342948 16.707883 34.47950694 14.72611534 27.3125 12.3125 C26.26900391 11.96380859 25.22550781 11.61511719 24.15039062 11.25585938 C15.79027604 8.40030448 7.86028066 5.03091316 0 1 C0 0.67 0 0.34 0 0 Z " fill="#FEA387" transform="translate(153,464)"/>
<path d="M0 0 C5.6291609 4.82499505 8.67206791 11.01620372 11 18 C11.09617307 20.51181429 11.13934762 22.98916622 11.125 25.5 C11.12886719 26.17675781 11.13273437 26.85351562 11.13671875 27.55078125 C11.13062416 30.64073767 10.9844023 33.04679311 10 36 C4.98491285 34.45941767 0.3852919 32.97068161 -4 30 C-3.45407787 25.90558399 -2.78753487 21.86771685 -2 17.8125 C-0.90010781 11.9026315 -0.39746131 5.99329819 0 0 Z " fill="#B9B8B8" transform="translate(389,307)"/>
<path d="M0 0 C1.63001953 0.01353516 1.63001953 0.01353516 3.29296875 0.02734375 C4.12441406 0.03894531 4.95585937 0.05054688 5.8125 0.0625 C3.32809412 2.55577876 0.83662287 5.03905559 -1.6875 7.4921875 C-6.39033128 12.09214434 -10.5911362 16.5480755 -14.1875 22.0625 C-17.9477985 21.48142368 -20.71785032 20.41050504 -24 18.5 C-24.79019531 18.04496094 -25.58039063 17.58992188 -26.39453125 17.12109375 C-26.98621094 16.77175781 -27.57789063 16.42242187 -28.1875 16.0625 C-24.62134344 8.0900827 -16.85608204 4.4275596 -9.1875 1.0625 C-5.90230525 -0.03256492 -3.45086585 -0.03710608 0 0 Z " fill="#B8B8B8" transform="translate(357.1875,293.9375)"/>
<path d="M0 0 C4.9723422 1.49170266 9.41845739 3.60457417 14 6 C13.11450392 11.08340345 10.06894831 13.13257085 6 16 C-2.45329338 21.00885079 -10.15864092 23.35147711 -20 23 C-19.360625 22.360625 -18.72125 21.72125 -18.0625 21.0625 C-17.60875 20.60488281 -17.155 20.14726562 -16.6875 19.67578125 C-15.43169265 18.42869479 -14.15788581 17.19968192 -12.875 15.98046875 C-7.76984521 11.05640898 -3.66303682 6.07633166 0 0 Z " fill="#B9B8B8" transform="translate(377,351)"/>
<path d="M0 0 C4.9723422 1.49170266 9.41845739 3.60457417 14 6 C13.55602326 11.04731455 12.81367921 15.70603364 11.4765625 20.60546875 C10.40563785 25.9864262 10.29189513 31.53080713 10 37 C3.12136308 30.6189666 -0.65449288 21.51917383 -1.1484375 12.19921875 C-1.20461701 7.95766553 -1.19577329 4.09432775 0 0 Z " fill="#B9B9B9" transform="translate(321,324)"/>
<path d="M0 0 C2.57682379 0.53582347 3.80870067 1.01227323 5.9375 2.625 C7.34023464 6.27211005 7.14015813 9.37636026 5.875 13.0625 C3.75 15.125 3.75 15.125 0.875 16.0625 C-2.90154862 15.99738709 -5.17416906 15.89064308 -8.0625 13.375 C-9.4863395 10.2760552 -9.67653827 8.44067188 -9.125 5.0625 C-6.50620524 1.2161452 -4.62486834 -0.35838463 0 0 Z " fill="#6B6B6B" transform="translate(225.125,463.9375)"/>
<path d="M0 0 C1.80859375 0.6328125 1.80859375 0.6328125 3.87109375 2.1953125 C5.27134563 5.83596738 4.95545804 8.93299689 3.80859375 12.6328125 C1.55786169 15.30034679 0.26413836 15.57586942 -3.19140625 16.0078125 C-6.64695086 15.57586942 -7.94067419 15.30034679 -10.19140625 12.6328125 C-11.16195756 9.89869843 -11.50554648 7.52178072 -11.19140625 4.6328125 C-8.11917185 -0.22329993 -5.38026882 -1.11877045 0 0 Z " fill="#6B6B6B" transform="translate(115.19140625,464.3671875)"/>
<path d="M0 0 C4.8274799 1.41292095 8.7162359 3.42974154 13 6 C8.50904196 12.98593472 3.94512246 18.36991836 -3 23 C-3.23313032 15.46211966 -3.09548878 8.29597188 -1 1 C-0.67 0.67 -0.34 0.34 0 0 Z " fill="#B7B7B6" transform="translate(350,338)"/>
<path d="M0 0 C0.33608711 8.05364285 0.0517291 14.49783264 -3 22 C-4.41965142 21.57228451 -5.8356224 21.13234457 -7.25 20.6875 C-8.03890625 20.44386719 -8.8278125 20.20023437 -9.640625 19.94921875 C-12.12697232 18.94891677 -13.9342834 17.69142391 -16 16 C-4.39002268 0 -4.39002268 0 0 0 Z " fill="#B8B8B7" transform="translate(373,307)"/>
<path d="M0 0 C0 4.62 0 9.24 0 14 C-1.7578125 12.47005208 -3.515625 10.94010417 -5.2734375 9.41015625 C-6.95632334 7.93041376 -6.95632334 7.93041376 -9 7 C-7.82140876 3.46422629 -4.16243124 0 0 0 Z " fill="#3CC092" transform="translate(136,57)"/>
<path d="M0 0 C0 3 0 3 -1.53125 4.60546875 C-2.1809375 5.12753906 -2.830625 5.64960938 -3.5 6.1875 C-4.1496875 6.71730469 -4.799375 7.24710938 -5.46875 7.79296875 C-5.9740625 8.19128906 -6.479375 8.58960938 -7 9 C-5.64978174 4.58110387 -3.73884332 2.65654657 0 0 Z " fill="#413B37" transform="translate(149,21)"/>
</svg>
